Coordinates
version=1
nRows=16
nColumns=40
inDegrees=yes

Units are S.I. units (second, meters, Newtons, ...)
Angles are in degrees.

endheader
time	pelvis_tilt	pelvis_list	pelvis_rotation	pelvis_tx	pelvis_ty	pelvis_tz	hip_flexion_r	hip_adduction_r	hip_rotation_r	knee_angle_r	knee_angle_r_beta	ankle_angle_r	subtalar_angle_r	mtp_angle_r	hip_flexion_l	hip_adduction_l	hip_rotation_l	knee_angle_l	knee_angle_l_beta	ankle_angle_l	subtalar_angle_l	mtp_angle_l	lumbar_extension	lumbar_bending	lumbar_rotation	arm_flex_r	arm_add_r	arm_rot_r	elbow_flex_r	pro_sup_r	wrist_flex_r	wrist_dev_r	arm_flex_l	arm_add_l	arm_rot_l	elbow_flex_l	pro_sup_l	wrist_flex_l	wrist_dev_l
     33.24750000	     -4.50528465	     -5.03245994	     -3.14869110	      0.93522190	      0.92088930	      0.50661546	     22.22181801	      1.95129590	    -14.49773357	     20.42394836	     20.42394836	      4.65434424	      0.51200321	     -5.74037269	     12.29248599	    -11.07315201	     -4.13901137	     50.04956327	     50.04956327	     16.43430681	    -18.77023818	      9.95683343	     -9.81405296	      8.83754442	      1.08823374	      1.84887003	    -13.02025422	    -12.56590841	     30.38783909	     46.53944961	      0.00000000	      0.00000000	      8.35955700	    -11.10329937	     -8.33923074	     70.07004659	     47.16497549	      0.00000000	      0.00000000
     33.26114286	     -4.45717960	     -5.27960005	     -2.78347770	      0.93454610	      0.92180075	      0.50892206	     21.47149765	      2.31227079	    -14.87410443	     19.99520444	     19.99520444	      4.98283460	      0.64693685	     -5.83740126	     14.34397667	    -11.81372000	     -3.79929792	     52.96502765	     52.96502765	     15.65681567	    -19.00810446	     10.74188715	     -9.88632127	      9.10364788	      1.31411596	      3.45740917	    -13.26623252	    -12.51012551	     31.15167281	     46.51445045	      0.00000000	      0.00000000	      7.60170967	    -10.56768793	     -7.86829804	     69.03681135	     47.11350292	      0.00000000	      0.00000000
     33.27478571	     -4.33506109	     -5.28131621	     -2.43282996	      0.93373704	      0.92297908	      0.51100057	     20.59982815	      2.44804366	    -15.07607097	     19.42947914	     19.42947914	      5.18413629	      0.73924744	     -6.27173304	     16.33108554	    -12.08523909	     -3.26918860	     55.44013470	     55.44013470	     16.36709235	    -19.11419085	     15.22718184	     -9.93590494	      9.13223525	      1.28630127	      5.28228916	    -13.44571730	    -11.98446665	     32.17670860	     46.43855660	      0.00000000	      0.00000000	      7.58133460	    -10.31131260	     -7.07851817	     65.11679608	     47.00996333	      0.00000000	      0.00000000
     33.28842857	     -4.31596162	     -5.36238454	     -2.11143168	      0.93261248	      0.92383307	      0.51310346	     19.92164067	      2.68049683	    -15.26614179	     18.96976460	     18.96976460	      5.30627228	      0.68976295	     -6.68768218	     18.38679634	    -12.47992356	     -2.79784459	     57.29644147	     57.29644147	     16.73424983	    -19.19583551	     17.94315272	     -9.94815588	      9.17768584	      1.85647022	      6.74003805	    -13.87345880	    -11.45131431	     33.08792808	     46.36257343	      0.00000000	      0.00000000	      7.52999514	     -9.78588790	     -6.32930604	     62.35726069	     46.93008671	      0.00000000	      0.00000000
     33.30207143	     -4.27722563	     -5.41210371	     -1.79933380	      0.93131832	      0.92468918	      0.51517483	     19.23836900	      2.89429426	    -15.40044300	     18.52313510	     18.52313510	      5.54041999	      0.63756094	     -6.74375121	     20.25273467	    -12.84769090	     -2.43456811	     58.31999637	     58.31999637	     16.49435591	    -19.27145349	     18.28322208	    -10.03286692	      9.14769810	      1.88251302	      8.66198225	    -14.03988224	    -11.34999701	     33.99955201	     46.33009568	      0.00000000	      0.00000000	      6.70960783	     -9.59088195	     -5.97702985	     60.77555008	     46.87803964	      0.00000000	      0.00000000
     33.31571429	     -4.21000805	     -5.34009356	     -1.49000885	      0.92983272	      0.92562769	      0.51711496	     18.56070440	      3.00058992	    -15.40609595	     18.09180523	     18.09180523	      5.75248354	      0.38839374	     -6.83040335	     21.97615111	    -12.99039067	     -2.06104940	     58.63923522	     58.63923522	     16.48232860	    -19.32140067	     18.82262992	    -10.16457853	      8.97663722	      1.88726513	     10.71868333	    -14.15522488	    -11.07883759	     34.85000993	     46.28932926	      0.00000000	      0.00000000	      6.13475185	     -9.46168472	     -5.67599223	     58.29980310	     46.81941985	      0.00000000	      0.00000000
     33.32935714	     -4.13862294	     -5.20839951	     -1.22020405	      0.92818196	      0.92653820	      0.51887583	     17.95716445	      3.04036658	    -15.24142104	     17.77703250	     17.77703250	      5.86270050	     -0.01968691	     -7.11384909	     23.57812714	    -12.99915685	     -1.72786319	     58.31262749	     58.31262749	     16.69878281	    -19.32112363	     19.64150323	    -10.24247045	      8.73325496	      2.44393431	     12.49306225	    -14.63803851	    -10.27973579	     35.33136246	     46.22268021	      0.00000000	      0.00000000	      6.37687174	     -8.95564046	     -5.51020953	     54.45061330	     46.76485653	      0.00000000	      0.00000000
     33.34300000	     -4.07799317	     -5.04761981	     -0.91880977	      0.92637496	      0.92740577	      0.52049426	     17.38395823	      3.01895048	    -15.20257497	     17.49271429	     17.49271429	      6.08782886	     -0.28613086	     -7.10706288	     25.02790950	    -12.90696402	     -1.40425332	     57.27513748	     57.27513748	     16.69339434	    -19.32368484	     19.65960262	    -10.41308702	      8.43854892	      2.37202369	     14.56505375	    -14.73268514	    -10.12104187	     36.38890987	     46.18218686	      0.00000000	      0.00000000	      5.48830976	     -8.95843086	     -5.37530049	     52.76769345	     46.72519267	      0.00000000	      0.00000000
     33.35664286	     -4.01072905	     -4.82263097	     -0.63811653	      0.92445568	      0.92825413	      0.52197632	     16.85790111	      2.92677727	    -15.07418005	     17.29241425	     17.29241425	      6.33725032	     -0.64468836	     -7.09218243	     26.27187946	    -12.68631220	     -1.15988181	     55.58661653	     55.58661653	     16.67791468	    -19.29453142	     19.64091117	    -10.59556506	      8.05904986	      2.40952038	     16.60758700	    -14.86144529	     -9.89088247	     37.34335270	     46.14228214	      0.00000000	      0.00000000	      4.73526746	     -8.92322093	     -5.34278620	     50.84034120	     46.69252405	      0.00000000	      0.00000000
     33.37028571	     -3.99088478	     -4.66028590	     -0.32853792	      0.92239077	      0.92891230	      0.52328307	     16.42099599	      2.89098129	    -14.92288244	     17.13559431	     17.13559431	      6.54205570	     -1.19680279	     -7.08237630	     27.42450154	    -12.46078573	     -0.88535024	     53.37095979	     53.37095979	     16.49149248	    -19.27097580	     19.12769695	    -10.67329746	      7.78816641	      2.77039744	     18.46861170	    -15.40840913	     -8.74815136	     38.11008348	     46.04958598	      0.00000000	      0.00000000	      4.98693627	     -8.44639200	     -5.97568895	     46.68971061	     46.70607783	      0.00000000	      0.00000000
     33.38392857	     -3.93356502	     -4.43246550	     -0.02635747	      0.92032234	      0.92956574	      0.52435664	     15.97626923	      2.73927930	    -14.88258307	     17.05399089	     17.05399089	      6.81471274	     -1.49663612	     -7.05778664	     28.31877711	    -12.08964127	     -0.68642229	     50.66067862	     50.66067862	     16.38545303	    -19.21940068	     19.08420346	    -10.87972396	      7.42079865	      2.70421944	     20.47683372	    -15.51284398	     -8.57063898	     39.31970102	     46.00338828	      0.00000000	      0.00000000	      4.02027223	     -8.51706278	     -6.07368284	     45.23632263	     46.68810156	      0.00000000	      0.00000000
     33.39757143	     -3.90420444	     -4.19352874	      0.29576654	      0.91822023	      0.93012351	      0.52527904	     15.57548284	      2.56219426	    -14.84350915	     17.00256960	     17.00256960	      7.09699828	     -1.83465444	     -7.02467093	     29.04944433	    -11.64412305	     -0.51508678	     47.52893060	     47.52893060	     16.11725991	    -19.13216343	     19.00090019	    -11.03482001	      7.05125562	      2.66491978	     22.39858085	    -15.62370903	     -8.34868889	     40.49433967	     45.95656298	      0.00000000	      0.00000000	      3.17835728	     -8.57880657	     -6.21669559	     43.61785611	     46.67575815	      0.00000000	      0.00000000
     33.41121429	     -3.90870073	     -4.12242273	      0.62730439	      0.91604703	      0.93040560	      0.52604273	     15.25217516	      2.53706503	    -14.87811975	     17.01688766	     17.01688766	      7.42908962	     -2.16797828	     -6.82039488	     29.66914725	    -11.34680181	     -0.35150932	     44.09043548	     44.09043548	     15.09759090	    -19.02085371	     16.94752704	    -11.11963709	      6.93334181	      2.90960770	     23.96807163	    -16.34982829	     -6.78539057	     42.34257544	     45.80681593	      0.00000000	      0.00000000	      3.50158495	     -8.06437188	     -7.60832671	     39.23430211	     46.77598652	      0.00000000	      0.00000000
     33.42485714	     -3.92396450	     -3.97708628	      0.98893482	      0.91393369	      0.93066774	      0.52656910	     14.92960921	      2.40470225	    -14.97031809	     17.03050528	     17.03050528	      7.71533052	     -2.40712808	     -6.82677142	     30.17366598	    -10.83879806	     -0.07353310	     40.54559420	     40.54559420	     14.63904711	    -18.79346480	     16.91518089	    -11.22048539	      6.69659913	      2.66954195	     25.82377409	    -16.37747073	     -6.64472077	     43.82474362	     45.75385346	      0.00000000	      0.00000000	      2.47384082	     -8.18725152	     -7.84510527	     38.01487811	     46.77449168	      0.00000000	      0.00000000
     33.43850000	     -4.00611203	     -3.81983081	      1.34141069	      0.91182296	      0.93074991	      0.52690110	     14.65771613	      2.24692475	    -15.07896328	     16.99988156	     16.99988156	      7.98136702	     -2.62181142	     -6.83719707	     30.64071185	    -10.27870667	      0.19574469	     36.97741770	     36.97741770	     14.12629248	    -18.40411140	     16.94933505	    -11.20743535	      6.45660701	      2.68620819	     27.52660967	    -16.58216282	     -6.55755733	     45.07141460	     45.71276702	      0.00000000	      0.00000000	      1.58286855	     -8.19632322	     -7.98641117	     36.94796240	     46.76868961	      0.00000000	      0.00000000
     33.45214286	     -4.01231021	     -3.77851383	      1.73052967	      0.90974863	      0.93081600	      0.52708057	     14.32133906	      2.18419804	    -15.31414946	     17.02151472	     17.02151472	      8.29062355	     -2.73577955	     -6.85683903	     30.94709583	     -9.82596632	      0.48207101	     33.44393279	     33.44393279	     13.31581987	    -17.77986041	     16.31683316	    -11.30858050	      6.40649604	      2.30953713	     29.24972689	    -16.50805207	     -6.23192211	     46.96408264	     45.63621097	      0.00000000	      0.00000000	      0.76456694	     -8.30455427	     -8.29521389	     35.16244802	     46.78079157	      0.00000000	      0.00000000
